{
  "accessors": [
    {
      "bufferView": 2,
      "componentType": 5126,
      "count": 4776,
      "max": [
        2.3838300704956055,
        3.8039960861206055,
        -0.1212640032172203
      ],
      "min": [
        -2.6000640392303467,
        -4.357011795043945,
        -0.8339539766311646
      ],
      "type": "VEC3"
    },
    {
      "bufferView": 2,
      "byteOffset": 57312,
      "componentType": 5126,
      "count": 4776,
      "max": [
        1.0,
        1.0,
        1.0
      ],
      "min": [
        -1.0,
        -1.0,
        -1.0
      ],
      "type": "VEC3"
    },
    {
      "bufferView": 1,
      "componentType": 5126,
      "count": 4776,
      "max": [
        0.9974579811096191,
        0.9974910020828247
      ],
      "min": [
        0.0009869999485090375,
        0.0009869999485090375
      ],
      "type": "VEC2"
    },
    {
      "bufferView": 0,
      "componentType": 5125,
      "count": 15291,
      "type": "SCALAR"
    },
    {
      "bufferView": 2,
      "byteOffset": 114624,
      "componentType": 5126,
      "count": 2808,
      "max": [
        2.393829822540283,
        3.8139960765838623,
        -0.11126400530338287
      ],
      "min": [
        -2.6100151538848877,
        -4.366962909698486,
        -0.8429990410804749
      ],
      "type": "VEC3"
    },
    {
      "bufferView": 2,
      "byteOffset": 148320,
      "componentType": 5126,
      "count": 2808,
      "max": [
        0.9999997019767761,
        0.9999971389770508,
        1.0
      ],
      "min": [
        -0.9999997615814209,
        -1.0,
        -1.0
      ],
      "type": "VEC3"
    },
    {
      "bufferView": 1,
      "byteOffset": 38208,
      "componentType": 5126,
      "count": 2808,
      "max": [
        0.9974579811096191,
        0.9974910020828247
      ],
      "min": [
        0.0009869999485090375,
        0.0009869999485090375
      ],
      "type": "VEC2"
    },
    {
      "bufferView": 0,
      "byteOffset": 61164,
      "componentType": 5125,
      "count": 8166,
      "type": "SCALAR"
    }
  ],
  "asset": {
    "extras": {
      "author": "Grechishnikova_Ana (https://sketchfab.com/Grechishnikova_Ana)",
      "license": "CC-BY-4.0 (http://creativecommons.org/licenses/by/4.0/)",
      "source": "https://sketchfab.com/3d-models/nintendo-f25a2c468a564fdeabf99d054cc18d0d",
      "title": "Nintendo"
    },
    "generator": "Sketchfab-12.6.0",
    "version": "2.0"
  },
  "bufferViews": [
    {
      "buffer": 0,
      "byteLength": 93828,
      "name": "floatBufferViews",
      "target": 34963
    },
    {
      "buffer": 0,
      "byteLength": 60672,
      "byteOffset": 93828,
      "byteStride": 8,
      "name": "floatBufferViews",
      "target": 34962
    },
    {
      "buffer": 0,
      "byteLength": 182016,
      "byteOffset": 154500,
      "byteStride": 12,
      "name": "floatBufferViews",
      "target": 34962
    }
  ],
  "buffers": [
    {
      "byteLength": 336516,
      "uri": "scene.bin"
    }
  ],
  "extensionsUsed": [
    "KHR_materials_unlit"
  ],
  "images": [
    {
      "uri": "textures/Tetris_basecolor_baseColor.png"
    }
  ],
  "materials": [
    {
      "doubleSided": true,
      "extensions": {
        "KHR_materials_unlit": {}
      },
      "name": "Tetris_basecolor",
      "pbrMetallicRoughness": {
        "baseColorTexture": {
          "index": 0
        },
        "metallicFactor": 0.0
      }
    },
    {
      "extensions": {
        "KHR_materials_unlit": {}
      },
      "name": "Tetris_white",
      "pbrMetallicRoughness": {
        "metallicFactor": 0.0
      }
    }
  ],
  "meshes": [
    {
      "name": "Object_0",
      "primitives": [
        {
          "attributes": {
            "NORMAL": 1,
            "POSITION": 0,
            "TEXCOORD_0": 2
          },
          "indices": 3,
          "material": 0,
          "mode": 4
        }
      ]
    },
    {
      "name": "Object_1",
      "primitives": [
        {
          "attributes": {
            "NORMAL": 5,
            "POSITION": 4,
            "TEXCOORD_0": 6
          },
          "indices": 7,
          "material": 1,
          "mode": 4
        }
      ]
    }
  ],
  "nodes": [
    {
      "children": [
        1
      ],
      "matrix": [
        0.33527809381484985,
        0.0,
        0.0,
        0.0,
        0.0,
        7.444669188113592e-17,
        -0.33527809381484985,
        0.0,
        0.0,
        0.33527809381484985,
        7.444669188113592e-17,
        0.0,
        0.0,
        0.0,
        0.0,
        1.0
      ],
      "name": "Sketchfab_model"
    },
    {
      "children": [
        2
      ],
      "name": "root"
    },
    {
      "children": [
        3
      ],
      "matrix": [
        1.0,
        0.0,
        0.0,
        0.0,
        0.0,
        2.220446049250313e-16,
        1.0,
        0.0,
        0.0,
        -1.0,
        2.220446049250313e-16,
        0.0,
        0.0,
        0.0,
        0.0,
        1.0
      ],
      "name": "GLTF_SceneRootNode"
    },
    {
      "children": [
        4,
        5
      ],
      "matrix": [
        1.0,
        0.0,
        0.0,
        0.0,
        0.0,
        -1.685873969314855e-07,
        0.9999999999999858,
        0.0,
        0.0,
        -0.9999999999999858,
        -1.685873969314855e-07,
        0.0,
        0.0,
        0.0,
        0.0,
        1.0
      ],
      "name": "Tetris_0"
    },
    {
      "mesh": 0,
      "name": "Object_4"
    },
    {
      "mesh": 1,
      "name": "Object_5"
    }
  ],
  "samplers": [
    {
      "magFilter": 9729,
      "minFilter": 9987,
      "wrapS": 10497,
      "wrapT": 10497
    }
  ],
  "scene": 0,
  "scenes": [
    {
      "name": "Sketchfab_Scene",
      "nodes": [
        0
      ]
    }
  ],
  "textures": [
    {
      "sampler": 0,
      "source": 0
    }
  ]
}
